# xmcd
#
# Track frame offsets:
#	150
#	16756
#	35444
#	51755
#
# Disc length: 913 seconds
#
# Revision: 0
# Processed by: cddbd v1.5.1PL2 Copyright (c) Steve Scherf et al.
# Submitted via: audiograbber 1.83.01
#
DISCID=25038f04
DTITLE=semiNAKED - BOI Jazz and Blues Fest EP
DYEAR=2006
DGENRE=Blues
TTITLE0=Don't Give Up
TTITLE1=Just Begun
TTITLE2=Last Day Of The Year
TTITLE3=Where You Been (Live)
EXTD=Limited release CD for Bay of Islands Jazz and Blues Festival
EXTT0=
EXTT1=
EXTT2=
EXTT3=
PLAYORDER=
